<svg width="56" height="56" viewBox="0 0 56 56" fill="none" xmlns="http://www.w3.org/2000/svg">
<rect width="56" height="56" rx="12" fill="#F5F5F5"/>
<path fill-rule="evenodd" clip-rule="evenodd" d="M18.3187 20.1864C18.4411 19.9204 18.7072 19.75 19 19.75H37C37.2928 19.75 37.5589 19.9204 37.6813 20.1864C37.8037 20.4524 37.7602 20.7654 37.5697 20.9878L30.55 29.1861V37C30.55 37.2593 30.4161 37.5002 30.1959 37.637C29.9757 37.7739 29.7004 37.7873 29.4679 37.6725L25.8679 35.8947C25.612 35.7683 25.45 35.5076 25.45 35.2222V29.1861L18.4303 20.9878C18.2399 20.7654 18.1963 20.4524 18.3187 20.1864ZM20.6296 21.25L26.7697 28.4211C26.8861 28.557 26.95 28.73 26.95 28.9089V34.7561L29.05 35.7932V28.9089C29.05 28.73 29.114 28.557 29.2303 28.4211L35.3705 21.25H20.6296Z" fill="#001C98"/>
</svg>
