<svg width="24" height="24" viewBox="0 0 24 24" fill="none" xmlns="http://www.w3.org/2000/svg">
<path fill-rule="evenodd" clip-rule="evenodd" d="M21.75 21C21.75 21.4142 21.4142 21.75 21 21.75H12.0042C11.5899 21.75 11.2542 21.4142 11.2542 21C11.2542 20.5858 11.5899 20.25 12.0042 20.25H20.25L20.25 3.75H12C11.5858 3.75 11.25 3.41421 11.25 3C11.25 2.58579 11.5858 2.25 12 2.25H21C21.4142 2.25 21.75 2.58579 21.75 3L21.75 21Z" fill="#212121"/>
<path fill-rule="evenodd" clip-rule="evenodd" d="M8.03033 17.0303C7.73744 17.3232 7.26256 17.3232 6.96967 17.0303L2.46967 12.5303C2.17678 12.2374 2.17678 11.7626 2.46967 11.4697L6.96967 6.96967C7.26256 6.67678 7.73744 6.67678 8.03033 6.96967C8.32322 7.26256 8.32322 7.73744 8.03033 8.03033L4.06066 12L8.03033 15.9697C8.32322 16.2626 8.32322 16.7374 8.03033 17.0303Z" fill="#212121"/>
<path fill-rule="evenodd" clip-rule="evenodd" d="M16.75 12.0042C16.75 12.4184 16.4142 12.7542 16 12.7542L3 12.7542C2.58579 12.7542 2.25 12.4184 2.25 12.0042C2.25 11.5899 2.58579 11.2542 3 11.2542L16 11.2542C16.4142 11.2542 16.75 11.5899 16.75 12.0042Z" fill="#212121"/>
</svg>
