<svg width="24" height="24" viewBox="0 0 24 24" fill="none" xmlns="http://www.w3.org/2000/svg">
<path fill-rule="evenodd" clip-rule="evenodd" d="M13.75 7.50049C13.75 7.08627 14.0858 6.75049 14.5 6.75049H20.5C20.9142 6.75049 21.25 7.08627 21.25 7.50049V13.5005C21.25 13.9147 20.9142 14.2505 20.5 14.2505C20.0857 14.2505 19.75 13.9147 19.75 13.5005V8.25049H14.5C14.0858 8.25049 13.75 7.9147 13.75 7.50049Z" fill="white"/>
<path fill-rule="evenodd" clip-rule="evenodd" d="M21.0182 6.95783C21.3177 7.24404 21.3284 7.71879 21.0422 8.01822L13.6345 15.7682C13.391 16.023 13.003 16.0738 12.702 15.8905L8.33342 13.2283L3.57796 18.978C3.31397 19.2972 2.84121 19.3419 2.52202 19.0779C2.20283 18.8139 2.15809 18.3412 2.42208 18.022L7.59133 11.772C7.82887 11.4848 8.24128 11.4156 8.55955 11.6095L12.9672 14.2955L19.9579 6.98178C20.2441 6.68235 20.7188 6.67163 21.0182 6.95783Z" fill="white"/>
</svg>
